# xmcd CD database file
#
# Track frame offsets:
#	187
#	11450
#	22195
#	35047
#	47435
#	61405
#	76512
#	89572
#	102977
#	115587
#
# Disc length: 1711 seconds
#
# Revision: 7
# Processed by: cddbd v1.5.2PL0 Copyright (c) Steve Scherf et al.
# Submitted via: CDex 1.79
#
DISCID=7206ad0a
DTITLE=The Remingtons - Blue Frontier
DYEAR=1992
DGENRE=Country
TTITLE0=Everything To Lose
TTITLE1=A Long Time Ago
TTITLE2=Eternally Blue
TTITLE3=I Could Love You (With My Eyes Closed)
TTITLE4=Two-Timin' Me
TTITLE5=After Ours
TTITLE6=When Love At First Sight Goes Blind
TTITLE7=Takin' The Easy Way Out
TTITLE8=That's Easy For Me To Say
TTITLE9=Take A Little Love
EXTD=more info YEAR: 1992
EXTT0=
EXTT1=
EXTT2=
EXTT3=
EXTT4=
EXTT5=
EXTT6=
EXTT7=
EXTT8=
EXTT9=
PLAYORDER=
